{"asset":{"version":"2.0","generator":"VECTARY"},"nodes":[{"translation":[0,0.0085,1.7763568394002505e-18],"scale":[0.001,0.001,0.001],"rotation":[0,0.7071067811865476,0,0.7071067811865475],"name":"root","mesh":0}],"materials":[{"pbrMetallicRoughness":{"baseColorFactor":[1,1,1,1],"baseColorTexture":{"index":0,"extensions":{"KHR_texture_transform":{"offset":[0,0],"scale":[1,1],"rotation":0}},"texCoord":0},"metallicFactor":0,"roughnessFactor":0.2},"name":"Kimberly","emissiveFactor":[0,0,0],"extensions":{},"alphaMode":"OPAQUE","doubleSided":true}],"textures":[{"sampler":0,"source":0}],"images":[{"uri":"Personnel_PVC_Door.jpg","mimeType":"image/jpeg"}],"samplers":[{"wrapS":10497,"wrapT":10497}],"meshes":[{"primitives":[{"mode":4,"attributes":{"POSITION":1,"NORMAL":2,"TEXCOORD_0":3},"material":0,"indices":0}]}],"accessors":[{"bufferView":0,"byteOffset":0,"componentType":5125,"count":6,"type":"SCALAR"},{"bufferView":1,"byteOffset":0,"componentType":5126,"count":4,"max":[5,8.199999809265137,0],"min":[-5,-8.199999809265137,0],"type":"VEC3"},{"bufferView":2,"byteOffset":0,"componentType":5126,"count":4,"type":"VEC3"},{"bufferView":3,"byteOffset":0,"componentType":5126,"count":4,"type":"VEC2"}],"bufferViews":[{"buffer":0,"byteOffset":0,"byteLength":24,"target":34963},{"buffer":0,"byteOffset":24,"byteLength":48,"target":34962},{"buffer":0,"byteOffset":72,"byteLength":48,"target":34962},{"buffer":0,"byteOffset":120,"byteLength":32,"target":34962}],"scene":0,"scenes":[{"nodes":[0],"name":"personnel-pvc-door"}],"extensionsUsed":["KHR_texture_transform"],"buffers":[{"byteLength":152,"uri":"personnel-pvc-door.bin"}]}