{"asset":{"version":"2.0","generator":"VECTARY"},"nodes":[{"translation":[0.05000999999999999,0.01565411834805164,2.6645352591003758e-18],"scale":[0.0009999999999999998,0.0009999999999999996,0.0009999999999999998],"rotation":[-0.4999999999999999,0.5,0.5000000000000001,-0.5],"name":"back","mesh":0},{"translation":[-0.05000999999999999,0.01565411834805164,2.6645352591003758e-18],"scale":[0.001,0.001,0.001],"rotation":[-0.5,0.5,-0.4999999999999999,0.5000000000000001],"name":"front","mesh":1},{"translation":[0,0,0],"scale":[0.001,0.001,0.001],"rotation":[-0.7071067811865475,0,0,0.7071067811865476],"name":"base","mesh":2}],"materials":[{"pbrMetallicRoughness":{"baseColorFactor":[0.8670237934377415,0.8670237934377415,0.8670237934377415,0],"metallicFactor":0,"roughnessFactor":0.2},"name":"Pluto","emissiveFactor":[0,0,0],"extensions":{},"alphaMode":"BLEND","doubleSided":true},{"pbrMetallicRoughness":{"baseColorFactor":[0.09387586652557776,0.1904628788224093,0.40982573843632336,1],"metallicFactor":0,"roughnessFactor":0.2},"name":"Lola","emissiveFactor":[0,0,0],"extensions":{},"alphaMode":"OPAQUE","doubleSided":false}],"meshes":[{"primitives":[{"mode":4,"attributes":{"POSITION":1,"NORMAL":2,"TEXCOORD_0":3},"material":0,"indices":0}]},{"primitives":[{"mode":4,"attributes":{"POSITION":5,"NORMAL":6,"TEXCOORD_0":7},"material":0,"indices":4}]},{"primitives":[{"mode":4,"attributes":{"POSITION":9,"NORMAL":10,"TEXCOORD_0":11},"material":1,"indices":8}]}],"accessors":[{"bufferView":0,"byteOffset":0,"componentType":5125,"count":4998,"type":"SCALAR"},{"bufferView":1,"byteOffset":0,"componentType":5126,"count":868,"max":[15,50,0],"min":[-15,-50,0],"type":"VEC3"},{"bufferView":2,"byteOffset":0,"componentType":5126,"count":868,"type":"VEC3"},{"bufferView":3,"byteOffset":0,"componentType":5126,"count":868,"type":"VEC2"},{"bufferView":4,"byteOffset":0,"componentType":5125,"count":4998,"type":"SCALAR"},{"bufferView":5,"byteOffset":0,"componentType":5126,"count":868,"max":[15,50,0],"min":[-15,-50,0],"type":"VEC3"},{"bufferView":6,"byteOffset":0,"componentType":5126,"count":868,"type":"VEC3"},{"bufferView":7,"byteOffset":0,"componentType":5126,"count":868,"type":"VEC2"},{"bufferView":8,"byteOffset":0,"componentType":5125,"count":756,"type":"SCALAR"},{"bufferView":9,"byteOffset":0,"componentType":5126,"count":333,"max":[50,49.97543716430664,49.28309631347656],"min":[-50,-49.97543716430664,-0.21690252423286438],"type":"VEC3"},{"bufferView":10,"byteOffset":0,"componentType":5126,"count":333,"type":"VEC3"},{"bufferView":11,"byteOffset":0,"componentType":5126,"count":333,"type":"VEC2"}],"bufferViews":[{"buffer":0,"byteOffset":0,"byteLength":19992,"target":34963},{"buffer":0,"byteOffset":19992,"byteLength":10416,"target":34962},{"buffer":0,"byteOffset":30408,"byteLength":10416,"target":34962},{"buffer":0,"byteOffset":40824,"byteLength":6944,"target":34962},{"buffer":0,"byteOffset":47768,"byteLength":19992,"target":34963},{"buffer":0,"byteOffset":67760,"byteLength":10416,"target":34962},{"buffer":0,"byteOffset":78176,"byteLength":10416,"target":34962},{"buffer":0,"byteOffset":88592,"byteLength":6944,"target":34962},{"buffer":0,"byteOffset":95536,"byteLength":3024,"target":34963},{"buffer":0,"byteOffset":98560,"byteLength":3996,"target":34962},{"buffer":0,"byteOffset":102556,"byteLength":3996,"target":34962},{"buffer":0,"byteOffset":106552,"byteLength":2664,"target":34962}],"scene":0,"scenes":[{"nodes":[0,1,2],"name":"round-storage-building"}],"extensionsUsed":["KHR_texture_transform"],"buffers":[{"byteLength":109216,"uri":"round-storage-building.bin"}]}