{"asset":{"version":"2.0","generator":"VECTARY"},"nodes":[{"translation":[-0.2267918720957727,0,0],"scale":[0.001,0.001,0.001],"rotation":[-0.7071067811865475,0,0,0.7071067811865476],"name":"3D Text - U","mesh":0},{"translation":[-0.19235644846077274,0,0],"scale":[0.001,0.001,0.001],"rotation":[-0.7071067811865475,0,0,0.7071067811865476],"name":"3D Text - n","mesh":1},{"translation":[-0.16235950138827274,0,0],"scale":[0.001,0.001,0.001],"rotation":[-0.7071067811865475,0,0,0.7071067811865476],"name":"3D Text - d","mesh":2},{"translation":[-0.13346118712827273,0,0],"scale":[0.001,0.001,0.001],"rotation":[-0.7071067811865475,0,0,0.7071067811865476],"name":"3D Text - e","mesh":3},{"translation":[-0.10645252130577273,0,0],"scale":[0.001,0.001,0.001],"rotation":[-0.7071067811865475,0,0,0.7071067811865476],"name":"3D Text - r","mesh":4},{"translation":[-0.07348499434827273,0,0],"scale":[0.001,0.001,0.001],"rotation":[-0.7071067811865475,0,0,0.7071067811865476],"name":"3D Text - C","mesh":5},{"translation":[-0.04438892618202272,0,0],"scale":[0.001,0.001,0.001],"rotation":[-0.7071067811865475,0,0,0.7071067811865476],"name":"3D Text - o","mesh":6},{"translation":[-0.01610584629702271,0,0],"scale":[0.001,0.001,0.001],"rotation":[-0.7071067811865475,0,0,0.7071067811865476],"name":"3D Text - n","mesh":7},{"translation":[0.013891100775477299,0,0],"scale":[0.001,0.001,0.001],"rotation":[-0.7071067811865475,0,0,0.7071067811865476],"name":"3D Text - s","mesh":8},{"translation":[0.036681016597977276,0,0],"scale":[0.001,0.001,0.001],"rotation":[-0.7071067811865475,0,0,0.7071067811865476],"name":"3D Text - t","mesh":9},{"translation":[0.056636459764227286,0,0],"scale":[0.001,0.001,0.001],"rotation":[-0.7071067811865475,0,0,0.7071067811865476],"name":"3D Text - r","mesh":10},{"translation":[0.0774927818367273,0,0],"scale":[0.001,0.001,0.001],"rotation":[-0.7071067811865475,0,0,0.7071067811865476],"name":"3D Text - u","mesh":11},{"translation":[0.1074897289092273,0,0],"scale":[0.001,0.001,0.001],"rotation":[-0.7071067811865475,0,0,0.7071067811865476],"name":"3D Text - c","mesh":12},{"translation":[0.1310486877004773,0,0],"scale":[0.001,0.001,0.001],"rotation":[-0.7071067811865475,0,0,0.7071067811865476],"name":"3D Text - t","mesh":13},{"translation":[0.15100413086672732,0,0],"scale":[0.001,0.001,0.001],"rotation":[-0.7071067811865475,0,0,0.7071067811865476],"name":"3D Text - i","mesh":14},{"translation":[0.16515879278297732,0,0],"scale":[0.001,0.001,0.001],"rotation":[-0.7071067811865475,0,0,0.7071067811865476],"name":"3D Text - o","mesh":15},{"translation":[0.19344187266797735,0,0],"scale":[0.001,0.001,0.001],"rotation":[-0.7071067811865475,0,0,0.7071067811865476],"name":"3D Text - n","mesh":16}],"materials":[{"pbrMetallicRoughness":{"baseColorFactor":[0.000023328004666098932,0,0.2715774154383751,1],"metallicFactor":0,"roughnessFactor":0},"name":"Brooklyn","emissiveFactor":[0.1,0.1,0.1],"extensions":{},"alphaMode":"OPAQUE","doubleSided":true}],"meshes":[{"primitives":[{"mode":4,"attributes":{"POSITION":1,"NORMAL":2,"TEXCOORD_0":3},"material":0,"indices":0}]},{"primitives":[{"mode":4,"attributes":{"POSITION":5,"NORMAL":6,"TEXCOORD_0":7},"material":0,"indices":4}]},{"primitives":[{"mode":4,"attributes":{"POSITION":9,"NORMAL":10,"TEXCOORD_0":11},"material":0,"indices":8}]},{"primitives":[{"mode":4,"attributes":{"POSITION":13,"NORMAL":14,"TEXCOORD_0":15},"material":0,"indices":12}]},{"primitives":[{"mode":4,"attributes":{"POSITION":17,"NORMAL":18,"TEXCOORD_0":19},"material":0,"indices":16}]},{"primitives":[{"mode":4,"attributes":{"POSITION":21,"NORMAL":22,"TEXCOORD_0":23},"material":0,"indices":20}]},{"primitives":[{"mode":4,"attributes":{"POSITION":25,"NORMAL":26,"TEXCOORD_0":27},"material":0,"indices":24}]},{"primitives":[{"mode":4,"attributes":{"POSITION":5,"NORMAL":6,"TEXCOORD_0":7},"material":0,"indices":4}]},{"primitives":[{"mode":4,"attributes":{"POSITION":29,"NORMAL":30,"TEXCOORD_0":31},"material":0,"indices":28}]},{"primitives":[{"mode":4,"attributes":{"POSITION":33,"NORMAL":34,"TEXCOORD_0":35},"material":0,"indices":32}]},{"primitives":[{"mode":4,"attributes":{"POSITION":17,"NORMAL":18,"TEXCOORD_0":19},"material":0,"indices":16}]},{"primitives":[{"mode":4,"attributes":{"POSITION":37,"NORMAL":38,"TEXCOORD_0":39},"material":0,"indices":36}]},{"primitives":[{"mode":4,"attributes":{"POSITION":41,"NORMAL":42,"TEXCOORD_0":43},"material":0,"indices":40}]},{"primitives":[{"mode":4,"attributes":{"POSITION":33,"NORMAL":34,"TEXCOORD_0":35},"material":0,"indices":32}]},{"primitives":[{"mode":4,"attributes":{"POSITION":45,"NORMAL":46,"TEXCOORD_0":47},"material":0,"indices":44}]},{"primitives":[{"mode":4,"attributes":{"POSITION":25,"NORMAL":26,"TEXCOORD_0":27},"material":0,"indices":24}]},{"primitives":[{"mode":4,"attributes":{"POSITION":5,"NORMAL":6,"TEXCOORD_0":7},"material":0,"indices":4}]}],"accessors":[{"bufferView":0,"byteOffset":0,"componentType":5125,"count":1020,"type":"SCALAR"},{"bufferView":1,"byteOffset":0,"componentType":5126,"count":682,"max":[33.54499816894531,2.1855658677570914e-15,35.69300079345703],"min":[4.248000144958496,-15,-0.4880000054836273],"type":"VEC3"},{"bufferView":2,"byteOffset":0,"componentType":5126,"count":682,"type":"VEC3"},{"bufferView":3,"byteOffset":0,"componentType":5126,"count":682,"type":"VEC2"},{"bufferView":4,"byteOffset":0,"componentType":5125,"count":960,"type":"SCALAR"},{"bufferView":5,"byteOffset":0,"componentType":5126,"count":642,"max":[29.101999282836914,1.702748935130023e-15,27.808000564575195],"min":[3.9059998989105225,-15,0],"type":"VEC3"},{"bufferView":6,"byteOffset":0,"componentType":5126,"count":642,"type":"VEC3"},{"bufferView":7,"byteOffset":0,"componentType":5126,"count":642,"type":"VEC2"},{"bufferView":8,"byteOffset":0,"componentType":5125,"count":2016,"type":"SCALAR"},{"bufferView":9,"byteOffset":0,"componentType":5126,"count":1346,"max":[27.759000778198242,2.326094139420737e-15,37.987998962402344],"min":[2.246000051498413,-15,-0.4880000054836273],"type":"VEC3"},{"bufferView":10,"byteOffset":0,"componentType":5126,"count":1346,"type":"VEC3"},{"bufferView":11,"byteOffset":0,"componentType":5126,"count":1346,"type":"VEC2"},{"bufferView":12,"byteOffset":0,"componentType":5125,"count":1968,"type":"SCALAR"},{"bufferView":13,"byteOffset":0,"componentType":5126,"count":1310,"max":[27.39299964904785,1.702748935130023e-15,27.808000564575195],"min":[2.246000051498413,-15,-0.4880000054836273],"type":"VEC3"},{"bufferView":14,"byteOffset":0,"componentType":5126,"count":1310,"type":"VEC3"},{"bufferView":15,"byteOffset":0,"componentType":5126,"count":1310,"type":"VEC2"},{"bufferView":16,"byteOffset":0,"componentType":5125,"count":1128,"type":"SCALAR"},{"bufferView":17,"byteOffset":0,"componentType":5126,"count":754,"max":[21.655000686645508,1.702748935130023e-15,27.808000564575195],"min":[3.9059998989105225,-15,0],"type":"VEC3"},{"bufferView":18,"byteOffset":0,"componentType":5126,"count":754,"type":"VEC3"},{"bufferView":19,"byteOffset":0,"componentType":5126,"count":754,"type":"VEC2"},{"bufferView":20,"byteOffset":0,"componentType":5125,"count":2124,"type":"SCALAR"},{"bufferView":21,"byteOffset":0,"componentType":5126,"count":1418,"max":[30.10300064086914,2.216978084606017e-15,36.20600128173828],"min":[2.9049999713897705,-15,-0.4880000054836273],"type":"VEC3"},{"bufferView":22,"byteOffset":0,"componentType":5126,"count":1418,"type":"VEC3"},{"bufferView":23,"byteOffset":0,"componentType":5126,"count":1418,"type":"VEC2"},{"bufferView":24,"byteOffset":0,"componentType":5125,"count":2400,"type":"SCALAR"},{"bufferView":25,"byteOffset":0,"componentType":5126,"count":1600,"max":[28.711000442504883,1.702748935130023e-15,27.808000564575195],"min":[2.246000051498413,-15,-0.4880000054836273],"type":"VEC3"},{"bufferView":26,"byteOffset":0,"componentType":5126,"count":1600,"type":"VEC3"},{"bufferView":27,"byteOffset":0,"componentType":5126,"count":1600,"type":"VEC2"},{"bufferView":28,"byteOffset":0,"componentType":5125,"count":2796,"type":"SCALAR"},{"bufferView":29,"byteOffset":0,"componentType":5126,"count":1866,"max":[22.948999404907227,1.702748935130023e-15,27.808000564575195],"min":[2.246000051498413,-15,-0.4880000054836273],"type":"VEC3"},{"bufferView":30,"byteOffset":0,"componentType":5126,"count":1866,"type":"VEC3"},{"bufferView":31,"byteOffset":0,"componentType":5126,"count":1866,"type":"VEC2"},{"bufferView":32,"byteOffset":0,"componentType":5125,"count":996,"type":"SCALAR"},{"bufferView":33,"byteOffset":0,"componentType":5126,"count":658,"max":[20.093000411987305,2.0270965912376525e-15,33.10499954223633],"min":[1.1469999551773071,-15,-0.4880000054836273],"type":"VEC3"},{"bufferView":34,"byteOffset":0,"componentType":5126,"count":658,"type":"VEC3"},{"bufferView":35,"byteOffset":0,"componentType":5126,"count":658,"type":"VEC2"},{"bufferView":36,"byteOffset":0,"componentType":5125,"count":1152,"type":"SCALAR"},{"bufferView":37,"byteOffset":0,"componentType":5126,"count":771,"max":[28.954999923706055,1.6713367182810972e-15,27.295000076293945],"min":[3.759999990463257,-15,-0.4880000054836273],"type":"VEC3"},{"bufferView":38,"byteOffset":0,"componentType":5126,"count":771,"type":"VEC3"},{"bufferView":39,"byteOffset":0,"componentType":5126,"count":771,"type":"VEC2"},{"bufferView":40,"byteOffset":0,"componentType":5125,"count":1932,"type":"SCALAR"},{"bufferView":41,"byteOffset":0,"componentType":5126,"count":1290,"max":[24.145999908447266,1.702748935130023e-15,27.808000564575195],"min":[2.246000051498413,-15,-0.4880000054836273],"type":"VEC3"},{"bufferView":42,"byteOffset":0,"componentType":5126,"count":1290,"type":"VEC3"},{"bufferView":43,"byteOffset":0,"componentType":5126,"count":1290,"type":"VEC2"},{"bufferView":44,"byteOffset":0,"componentType":5125,"count":792,"type":"SCALAR"},{"bufferView":45,"byteOffset":0,"componentType":5126,"count":530,"max":[11.694000244140625,2.326094139420737e-15,37.987998962402344],"min":[3.5889999866485596,-15,0],"type":"VEC3"},{"bufferView":46,"byteOffset":0,"componentType":5126,"count":530,"type":"VEC3"},{"bufferView":47,"byteOffset":0,"componentType":5126,"count":530,"type":"VEC2"}],"bufferViews":[{"buffer":0,"byteOffset":0,"byteLength":4080,"target":34963},{"buffer":0,"byteOffset":4080,"byteLength":8184,"target":34962},{"buffer":0,"byteOffset":12264,"byteLength":8184,"target":34962},{"buffer":0,"byteOffset":20448,"byteLength":5456,"target":34962},{"buffer":0,"byteOffset":25904,"byteLength":3840,"target":34963},{"buffer":0,"byteOffset":29744,"byteLength":7704,"target":34962},{"buffer":0,"byteOffset":37448,"byteLength":7704,"target":34962},{"buffer":0,"byteOffset":45152,"byteLength":5136,"target":34962},{"buffer":0,"byteOffset":50288,"byteLength":8064,"target":34963},{"buffer":0,"byteOffset":58352,"byteLength":16152,"target":34962},{"buffer":0,"byteOffset":74504,"byteLength":16152,"target":34962},{"buffer":0,"byteOffset":90656,"byteLength":10768,"target":34962},{"buffer":0,"byteOffset":101424,"byteLength":7872,"target":34963},{"buffer":0,"byteOffset":109296,"byteLength":15720,"target":34962},{"buffer":0,"byteOffset":125016,"byteLength":15720,"target":34962},{"buffer":0,"byteOffset":140736,"byteLength":10480,"target":34962},{"buffer":0,"byteOffset":151216,"byteLength":4512,"target":34963},{"buffer":0,"byteOffset":155728,"byteLength":9048,"target":34962},{"buffer":0,"byteOffset":164776,"byteLength":9048,"target":34962},{"buffer":0,"byteOffset":173824,"byteLength":6032,"target":34962},{"buffer":0,"byteOffset":179856,"byteLength":8496,"target":34963},{"buffer":0,"byteOffset":188352,"byteLength":17016,"target":34962},{"buffer":0,"byteOffset":205368,"byteLength":17016,"target":34962},{"buffer":0,"byteOffset":222384,"byteLength":11344,"target":34962},{"buffer":0,"byteOffset":233728,"byteLength":9600,"target":34963},{"buffer":0,"byteOffset":243328,"byteLength":19200,"target":34962},{"buffer":0,"byteOffset":262528,"byteLength":19200,"target":34962},{"buffer":0,"byteOffset":281728,"byteLength":12800,"target":34962},{"buffer":0,"byteOffset":294528,"byteLength":11184,"target":34963},{"buffer":0,"byteOffset":305712,"byteLength":22392,"target":34962},{"buffer":0,"byteOffset":328104,"byteLength":22392,"target":34962},{"buffer":0,"byteOffset":350496,"byteLength":14928,"target":34962},{"buffer":0,"byteOffset":365424,"byteLength":3984,"target":34963},{"buffer":0,"byteOffset":369408,"byteLength":7896,"target":34962},{"buffer":0,"byteOffset":377304,"byteLength":7896,"target":34962},{"buffer":0,"byteOffset":385200,"byteLength":5264,"target":34962},{"buffer":0,"byteOffset":390464,"byteLength":4608,"target":34963},{"buffer":0,"byteOffset":395072,"byteLength":9252,"target":34962},{"buffer":0,"byteOffset":404324,"byteLength":9252,"target":34962},{"buffer":0,"byteOffset":413576,"byteLength":6168,"target":34962},{"buffer":0,"byteOffset":419744,"byteLength":7728,"target":34963},{"buffer":0,"byteOffset":427472,"byteLength":15480,"target":34962},{"buffer":0,"byteOffset":442952,"byteLength":15480,"target":34962},{"buffer":0,"byteOffset":458432,"byteLength":10320,"target":34962},{"buffer":0,"byteOffset":468752,"byteLength":3168,"target":34963},{"buffer":0,"byteOffset":471920,"byteLength":6360,"target":34962},{"buffer":0,"byteOffset":478280,"byteLength":6360,"target":34962},{"buffer":0,"byteOffset":484640,"byteLength":4240,"target":34962}],"scene":0,"scenes":[{"nodes":[0,1,2,3,4,5,6,7,8,9,10,11,12,13,14,15,16],"name":"construction"}],"extensionsUsed":["KHR_texture_transform"],"buffers":[{"byteLength":488880,"uri":"construction.bin"}]}