{"asset":{"version":"2.0","generator":"VECTARY"},"nodes":[{"translation":[0.050010000000000006,0.015654118348051645,0],"scale":[0.0010000000000000005,0.0010000000000000009,0.0010000000000000005],"rotation":[-0.5,0.5000000000000001,0.5000000000000001,-0.5],"name":"back","mesh":0},{"translation":[-0.050010000000000006,0.015654118348051645,0],"scale":[0.0010000000000000002,0.001,0.0010000000000000002],"rotation":[-0.5,0.5000000000000001,-0.5000000000000001,0.5],"name":"front","mesh":1},{"translation":[0,0.015654118348051645,0.050010000000000006],"scale":[0.0010000000000000005,0.0010000000000000005,0.0010000000000000005],"rotation":[-0.7071067811865475,0.7071067811865476,1.1102230246251565e-16,0],"name":"left","mesh":2},{"translation":[0,0.015654118348051645,-0.050010000000000006],"scale":[0.0010000000000000005,0.0010000000000000005,0.0010000000000000005],"rotation":[0,1.1102230246251565e-16,0.7071067811865476,-0.7071067811865475],"name":"right","mesh":3},{"translation":[0,-0.019790751000773137,0],"scale":[0.001,0.001,0.001],"rotation":[-0.7071067811865476,0,0,0.7071067811865476],"name":"base","mesh":4}],"materials":[{"pbrMetallicRoughness":{"baseColorFactor":[0.8670237934377415,0.8670237934377415,0.8670237934377415,0],"metallicFactor":0,"roughnessFactor":0.2},"name":"Pluto","emissiveFactor":[0,0,0],"extensions":{},"alphaMode":"BLEND","doubleSided":true},{"pbrMetallicRoughness":{"baseColorFactor":[0.09387586652557776,0.1904628788224093,0.40982573843632336,1],"metallicFactor":0,"roughnessFactor":0.2},"name":"Lola","emissiveFactor":[0,0,0],"extensions":{},"alphaMode":"OPAQUE","doubleSided":false}],"meshes":[{"primitives":[{"mode":4,"attributes":{"POSITION":1,"NORMAL":2,"TEXCOORD_0":3},"material":0,"indices":0}]},{"primitives":[{"mode":4,"attributes":{"POSITION":5,"NORMAL":6,"TEXCOORD_0":7},"material":0,"indices":4}]},{"primitives":[{"mode":4,"attributes":{"POSITION":9,"NORMAL":10,"TEXCOORD_0":11},"material":0,"indices":8}]},{"primitives":[{"mode":4,"attributes":{"POSITION":13,"NORMAL":14,"TEXCOORD_0":15},"material":0,"indices":12}]},{"primitives":[{"mode":4,"attributes":{"POSITION":17,"NORMAL":18,"TEXCOORD_0":19},"material":1,"indices":16}]}],"accessors":[{"bufferView":0,"byteOffset":0,"componentType":5125,"count":4998,"type":"SCALAR"},{"bufferView":1,"byteOffset":0,"componentType":5126,"count":868,"max":[15,50,0],"min":[-15,-50,0],"type":"VEC3"},{"bufferView":2,"byteOffset":0,"componentType":5126,"count":868,"type":"VEC3"},{"bufferView":3,"byteOffset":0,"componentType":5126,"count":868,"type":"VEC2"},{"bufferView":4,"byteOffset":0,"componentType":5125,"count":4998,"type":"SCALAR"},{"bufferView":5,"byteOffset":0,"componentType":5126,"count":868,"max":[15,50,0],"min":[-15,-50,0],"type":"VEC3"},{"bufferView":6,"byteOffset":0,"componentType":5126,"count":868,"type":"VEC3"},{"bufferView":7,"byteOffset":0,"componentType":5126,"count":868,"type":"VEC2"},{"bufferView":8,"byteOffset":0,"componentType":5125,"count":4998,"type":"SCALAR"},{"bufferView":9,"byteOffset":0,"componentType":5126,"count":868,"max":[15,50,0],"min":[-15,-50,0],"type":"VEC3"},{"bufferView":10,"byteOffset":0,"componentType":5126,"count":868,"type":"VEC3"},{"bufferView":11,"byteOffset":0,"componentType":5126,"count":868,"type":"VEC2"},{"bufferView":12,"byteOffset":0,"componentType":5125,"count":4998,"type":"SCALAR"},{"bufferView":13,"byteOffset":0,"componentType":5126,"count":868,"max":[15,50,0],"min":[-15,-50,0],"type":"VEC3"},{"bufferView":14,"byteOffset":0,"componentType":5126,"count":868,"type":"VEC3"},{"bufferView":15,"byteOffset":0,"componentType":5126,"count":868,"type":"VEC2"},{"bufferView":16,"byteOffset":0,"componentType":5125,"count":102,"type":"SCALAR"},{"bufferView":17,"byteOffset":0,"componentType":5126,"count":56,"max":[50,50,69.41918182373047],"min":[-50,-50,20.00040054321289],"type":"VEC3"},{"bufferView":18,"byteOffset":0,"componentType":5126,"count":56,"type":"VEC3"},{"bufferView":19,"byteOffset":0,"componentType":5126,"count":56,"type":"VEC2"}],"bufferViews":[{"buffer":0,"byteOffset":0,"byteLength":19992,"target":34963},{"buffer":0,"byteOffset":19992,"byteLength":10416,"target":34962},{"buffer":0,"byteOffset":30408,"byteLength":10416,"target":34962},{"buffer":0,"byteOffset":40824,"byteLength":6944,"target":34962},{"buffer":0,"byteOffset":47768,"byteLength":19992,"target":34963},{"buffer":0,"byteOffset":67760,"byteLength":10416,"target":34962},{"buffer":0,"byteOffset":78176,"byteLength":10416,"target":34962},{"buffer":0,"byteOffset":88592,"byteLength":6944,"target":34962},{"buffer":0,"byteOffset":95536,"byteLength":19992,"target":34963},{"buffer":0,"byteOffset":115528,"byteLength":10416,"target":34962},{"buffer":0,"byteOffset":125944,"byteLength":10416,"target":34962},{"buffer":0,"byteOffset":136360,"byteLength":6944,"target":34962},{"buffer":0,"byteOffset":143304,"byteLength":19992,"target":34963},{"buffer":0,"byteOffset":163296,"byteLength":10416,"target":34962},{"buffer":0,"byteOffset":173712,"byteLength":10416,"target":34962},{"buffer":0,"byteOffset":184128,"byteLength":6944,"target":34962},{"buffer":0,"byteOffset":191072,"byteLength":408,"target":34963},{"buffer":0,"byteOffset":191480,"byteLength":672,"target":34962},{"buffer":0,"byteOffset":192152,"byteLength":672,"target":34962},{"buffer":0,"byteOffset":192824,"byteLength":448,"target":34962}],"scene":0,"scenes":[{"nodes":[0,1,2,3,4],"name":"lorry-shelter"}],"extensionsUsed":["KHR_texture_transform"],"buffers":[{"byteLength":193272,"uri":"lorry-shelter.bin"}]}