{"asset":{"version":"2.0","generator":"VECTARY"},"nodes":[{"translation":[0,-0.04260646236601079,-7.105427357601002e-18],"scale":[0.001,0.001,0.001],"rotation":[-0.7071067811865475,0,0,0.7071067811865476],"name":"base","mesh":0}],"materials":[{"pbrMetallicRoughness":{"baseColorFactor":[1,1,1,1],"baseColorTexture":{"index":0,"extensions":{"KHR_texture_transform":{"offset":[0,0],"scale":[2,1],"rotation":0}},"texCoord":0},"metallicFactor":0,"roughnessFactor":0.2},"name":"Lola","emissiveFactor":[0,0,0],"extensions":{},"alphaMode":"OPAQUE","doubleSided":false}],"textures":[{"sampler":0,"source":0}],"images":[{"uri":"main.jpg","mimeType":"image/jpeg"}],"samplers":[{"wrapS":10497,"wrapT":10497}],"meshes":[{"primitives":[{"mode":4,"attributes":{"POSITION":1,"NORMAL":2,"TEXCOORD_0":3},"material":0,"indices":0}]}],"accessors":[{"bufferView":0,"byteOffset":0,"componentType":5125,"count":60,"type":"SCALAR"},{"bufferView":1,"byteOffset":0,"componentType":5126,"count":38,"max":[50,50,100],"min":[-50,-50,42.60606384277344],"type":"VEC3"},{"bufferView":2,"byteOffset":0,"componentType":5126,"count":38,"type":"VEC3"},{"bufferView":3,"byteOffset":0,"componentType":5126,"count":38,"type":"VEC2"}],"bufferViews":[{"buffer":0,"byteOffset":0,"byteLength":240,"target":34963},{"buffer":0,"byteOffset":240,"byteLength":456,"target":34962},{"buffer":0,"byteOffset":696,"byteLength":456,"target":34962},{"buffer":0,"byteOffset":1152,"byteLength":304,"target":34962}],"scene":0,"scenes":[{"nodes":[0],"name":"steel-building"}],"extensionsUsed":["KHR_texture_transform"],"buffers":[{"byteLength":1456,"uri":"steel-building.bin"}]}