{"asset":{"version":"2.0","generator":"VECTARY"},"nodes":[{"translation":[0.050010000000000006,0.015654118348051645,0],"scale":[0.0010000000000000005,0.0010000000000000009,0.0010000000000000005],"rotation":[-0.5,0.5000000000000001,0.5000000000000001,-0.5],"name":"back","mesh":0},{"translation":[-0.050010000000000006,0.015654118348051645,0],"scale":[0.0010000000000000002,0.001,0.0010000000000000002],"rotation":[-0.5,0.5000000000000001,-0.5000000000000001,0.5],"name":"front","mesh":1},{"translation":[0,0,0],"scale":[0.001,0.001,0.001],"rotation":[-0.7071067811865476,0,0,0.7071067811865476],"name":"base","mesh":2}],"materials":[{"pbrMetallicRoughness":{"baseColorFactor":[0.8670237934377415,0.8670237934377415,0.8670237934377415,0],"metallicFactor":0,"roughnessFactor":0.2},"name":"Pluto","emissiveFactor":[0,0,0],"extensions":{},"alphaMode":"BLEND","doubleSided":true},{"pbrMetallicRoughness":{"baseColorFactor":[0.8670237934377415,0.8670237934377415,0.8670237934377415,1],"metallicFactor":0,"roughnessFactor":0.2},"name":"Coastal Calm","emissiveFactor":[0,0,0],"extensions":{},"alphaMode":"OPAQUE","doubleSided":false}],"meshes":[{"primitives":[{"mode":4,"attributes":{"POSITION":1,"NORMAL":2,"TEXCOORD_0":3},"material":0,"indices":0}]},{"primitives":[{"mode":4,"attributes":{"POSITION":5,"NORMAL":6,"TEXCOORD_0":7},"material":0,"indices":4}]},{"primitives":[{"mode":4,"attributes":{"POSITION":9,"NORMAL":10,"TEXCOORD_0":11},"material":1,"indices":8}]}],"accessors":[{"bufferView":0,"byteOffset":0,"componentType":5125,"count":4998,"type":"SCALAR"},{"bufferView":1,"byteOffset":0,"componentType":5126,"count":868,"max":[15,50,0],"min":[-15,-50,0],"type":"VEC3"},{"bufferView":2,"byteOffset":0,"componentType":5126,"count":868,"type":"VEC3"},{"bufferView":3,"byteOffset":0,"componentType":5126,"count":868,"type":"VEC2"},{"bufferView":4,"byteOffset":0,"componentType":5125,"count":4998,"type":"SCALAR"},{"bufferView":5,"byteOffset":0,"componentType":5126,"count":868,"max":[15,50,0],"min":[-15,-50,0],"type":"VEC3"},{"bufferView":6,"byteOffset":0,"componentType":5126,"count":868,"type":"VEC3"},{"bufferView":7,"byteOffset":0,"componentType":5126,"count":868,"type":"VEC2"},{"bufferView":8,"byteOffset":0,"componentType":5125,"count":11340,"type":"SCALAR"},{"bufferView":9,"byteOffset":0,"componentType":5126,"count":3848,"max":[50.05397415161133,52.103233337402344,50],"min":[-50.05397415161133,-52.103233337402344,0],"type":"VEC3"},{"bufferView":10,"byteOffset":0,"componentType":5126,"count":3848,"type":"VEC3"},{"bufferView":11,"byteOffset":0,"componentType":5126,"count":3848,"type":"VEC2"}],"bufferViews":[{"buffer":0,"byteOffset":0,"byteLength":19992,"target":34963},{"buffer":0,"byteOffset":19992,"byteLength":10416,"target":34962},{"buffer":0,"byteOffset":30408,"byteLength":10416,"target":34962},{"buffer":0,"byteOffset":40824,"byteLength":6944,"target":34962},{"buffer":0,"byteOffset":47768,"byteLength":19992,"target":34963},{"buffer":0,"byteOffset":67760,"byteLength":10416,"target":34962},{"buffer":0,"byteOffset":78176,"byteLength":10416,"target":34962},{"buffer":0,"byteOffset":88592,"byteLength":6944,"target":34962},{"buffer":0,"byteOffset":95536,"byteLength":45360,"target":34963},{"buffer":0,"byteOffset":140896,"byteLength":46176,"target":34962},{"buffer":0,"byteOffset":187072,"byteLength":46176,"target":34962},{"buffer":0,"byteOffset":233248,"byteLength":30784,"target":34962}],"scene":0,"scenes":[{"nodes":[0,1,2],"name":"enclosed-livestock"}],"extensionsUsed":["KHR_texture_transform"],"buffers":[{"byteLength":264032,"uri":"enclosed-livestock.bin"}]}