{"asset":{"version":"2.0","generator":"VECTARY"},"nodes":[{"translation":[0,0,0],"scale":[0.00045000000000000004,0.00045000000000000004,0.00045000000000000004],"rotation":[-4.329780281177467e-17,0.7071067811865476,0.7071067811865476,4.329780281177467e-17],"name":"0","children":[1,2,3,4,5,6,7,8,9,10,11,12,13]},{"translation":[-110.2678169319632,-1.5056735327031014,95.25851688552717],"scale":[0.020000000000000004,0.020000000000000004,0.020000000000000004],"rotation":[0,0,0.7071067811865477,0.7071067811865474],"name":"0 1","mesh":0},{"translation":[-110.2678169319632,-1.5056735327031014,95.25851688552717],"scale":[0.020000000000000004,0.020000000000000004,0.020000000000000004],"rotation":[0,0,0.7071067811865477,0.7071067811865474],"name":"0 2","mesh":1},{"translation":[-110.2678169319632,-1.5056735327031014,95.25851688552717],"scale":[0.020000000000000004,0.020000000000000004,0.020000000000000004],"rotation":[0,0,0.7071067811865477,0.7071067811865474],"name":"0 3","mesh":2},{"translation":[-110.2678169319632,-1.5056735327031014,95.25851688552717],"scale":[0.020000000000000004,0.020000000000000004,0.020000000000000004],"rotation":[0,0,0.7071067811865477,0.7071067811865474],"name":"0 4","mesh":3},{"translation":[-110.2678169319632,-1.5056735327031014,90.99785740084083],"scale":[0.020000000000000004,0.020000000000000004,0.020000000000000004],"rotation":[0,0,0.7071067811865477,0.7071067811865474],"name":"0 5","mesh":4},{"translation":[-110.2678169319632,-1.5056735327031014,93.58735901428106],"scale":[0.020000000000000004,0.020000000000000004,0.020000000000000004],"rotation":[0,0,0.7071067811865477,0.7071067811865474],"name":"0 6","mesh":5},{"translation":[-110.2678169319632,-1.5056735327031014,95.25851688552717],"scale":[0.020000000000000004,0.020000000000000004,0.020000000000000004],"rotation":[0,0,0.7071067811865477,0.7071067811865474],"name":"0 7","mesh":6},{"translation":[-110.2678169319632,-1.5056735327031014,95.25851688552717],"scale":[0.020000000000000004,0.020000000000000004,0.020000000000000004],"rotation":[0,0,0.7071067811865477,0.7071067811865474],"name":"0 8","mesh":7},{"translation":[-110.2678169319632,-1.5056735327031014,95.25851688552717],"scale":[0.020000000000000004,0.020000000000000004,0.020000000000000004],"rotation":[0,0,0.7071067811865477,0.7071067811865474],"name":"0 9","mesh":8},{"translation":[-110.2678169319632,-1.5056735327031014,95.25851688552717],"scale":[0.020000000000000004,0.020000000000000004,0.020000000000000004],"rotation":[0,0,0.7071067811865477,0.7071067811865474],"name":"0 10","mesh":9},{"translation":[-110.2678169319632,-1.5056735327031014,95.25851688552717],"scale":[0.020000000000000004,0.020000000000000004,0.020000000000000004],"rotation":[0,0,0.7071067811865477,0.7071067811865474],"name":"0 11","mesh":10},{"translation":[-110.2678169319632,-1.5056735327031014,95.25851688552717],"scale":[0.020000000000000004,0.020000000000000004,0.020000000000000004],"rotation":[0,0,0.7071067811865477,0.7071067811865474],"name":"0 12","mesh":11},{"translation":[-110.2678169319632,-1.5056735327031014,95.25851688552717],"scale":[0.020000000000000004,0.020000000000000004,0.020000000000000004],"rotation":[0,0,0.7071067811865477,0.7071067811865474],"name":"0 13","mesh":12}],"materials":[{"pbrMetallicRoughness":{"baseColorFactor":[0.035614369684918774,0.035614369684918774,0.8355277914608409,1],"metallicFactor":0,"roughnessFactor":0.6837722659111023},"name":"fl-blue","emissiveFactor":[0,0,0],"extensions":{},"alphaMode":"OPAQUE","doubleSided":true},{"pbrMetallicRoughness":{"baseColorFactor":[0.6253447208024265,0.7011695015314021,0.7518950805830509,1],"metallicFactor":0,"roughnessFactor":0.6837722659111023},"name":"top","emissiveFactor":[0,0,0],"extensions":{},"alphaMode":"OPAQUE","doubleSided":false},{"pbrMetallicRoughness":{"baseColorFactor":[0.744530171266715,0.7742273142184416,0.7969165429079781,1],"metallicFactor":0,"roughnessFactor":0.6837722659111023},"name":"fl-chrome","emissiveFactor":[0,0,0],"extensions":{},"alphaMode":"OPAQUE","doubleSided":true},{"pbrMetallicRoughness":{"baseColorFactor":[0.24680041960155044,0.1390224537347025,0.07805658995810189,1],"metallicFactor":0,"roughnessFactor":0.8211145401000977},"name":"fl-leather","emissiveFactor":[0,0,0],"extensions":{},"alphaMode":"OPAQUE","doubleSided":true},{"pbrMetallicRoughness":{"baseColorFactor":[0.19215688109397888,0.16078431904315946,0.125490203499794,1],"metallicFactor":0,"roughnessFactor":0.8267949223518372},"name":"fl-tire","emissiveFactor":[0,0,0],"extensions":{},"alphaMode":"OPAQUE","doubleSided":true},{"pbrMetallicRoughness":{"baseColorFactor":[0.12156863510608672,0.08235294371843338,0.047058828175067895,1],"metallicFactor":0,"roughnessFactor":0.6837722659111023},"name":"fl-dark chrome","emissiveFactor":[0,0,0],"extensions":{},"alphaMode":"OPAQUE","doubleSided":true},{"pbrMetallicRoughness":{"baseColorFactor":[0.6313725709915161,0.5843137502670287,0.40000003576278687,1],"baseColorTexture":{"index":0,"extensions":{"KHR_texture_transform":{"offset":[0,0],"scale":[1,1],"rotation":0}},"texCoord":0},"metallicFactor":0,"roughnessFactor":0.6837722659111023},"name":"fl-wood","emissiveFactor":[0,0,0],"extensions":{},"alphaMode":"OPAQUE","doubleSided":true}],"meshes":[{"primitives":[{"mode":4,"attributes":{"POSITION":1,"NORMAL":2,"TEXCOORD_0":3},"material":0,"indices":0}]},{"primitives":[{"mode":4,"attributes":{"POSITION":5,"NORMAL":6,"TEXCOORD_0":7},"material":1,"indices":4}]},{"primitives":[{"mode":4,"attributes":{"POSITION":9,"NORMAL":10,"TEXCOORD_0":11},"material":2,"indices":8}]},{"primitives":[{"mode":4,"attributes":{"POSITION":13,"NORMAL":14,"TEXCOORD_0":15},"material":3,"indices":12}]},{"primitives":[{"mode":4,"attributes":{"POSITION":17,"NORMAL":18,"TEXCOORD_0":19},"material":4,"indices":16}]},{"primitives":[{"mode":4,"attributes":{"POSITION":21,"NORMAL":22,"TEXCOORD_0":23},"material":5,"indices":20}]},{"primitives":[{"mode":4,"attributes":{"POSITION":25,"NORMAL":26,"TEXCOORD_0":27},"material":0,"indices":24}]},{"primitives":[{"mode":4,"attributes":{"POSITION":29,"NORMAL":30,"TEXCOORD_0":31},"material":0,"indices":28}]},{"primitives":[{"mode":4,"attributes":{"POSITION":33,"NORMAL":34,"TEXCOORD_0":35},"material":0,"indices":32}]},{"primitives":[{"mode":4,"attributes":{"POSITION":37,"NORMAL":38,"TEXCOORD_0":39},"material":2,"indices":36}]},{"primitives":[{"mode":4,"attributes":{"POSITION":41,"NORMAL":42,"TEXCOORD_0":43},"material":6,"indices":40}]},{"primitives":[{"mode":4,"attributes":{"POSITION":45,"NORMAL":46,"TEXCOORD_0":47},"material":0,"indices":44}]},{"primitives":[{"mode":4,"attributes":{"POSITION":49,"NORMAL":50,"TEXCOORD_0":51},"material":0,"indices":48}]}],"accessors":[{"bufferView":0,"byteOffset":0,"componentType":5125,"count":3381,"type":"SCALAR"},{"bufferView":1,"byteOffset":0,"componentType":5126,"count":777,"max":[37906.75,-3079.3896484375,4905.87841796875],"min":[-37859.5234375,-18014.87109375,1044.7880859375],"type":"VEC3"},{"bufferView":2,"byteOffset":0,"componentType":5126,"count":777,"type":"VEC3"},{"bufferView":3,"byteOffset":0,"componentType":5126,"count":777,"type":"VEC2"},{"bufferView":4,"byteOffset":0,"componentType":5125,"count":3453,"type":"SCALAR"},{"bufferView":5,"byteOffset":0,"componentType":5126,"count":875,"max":[37741.51953125,-3079.3896484375,5529.52685546875],"min":[-37694.28125,-18014.87109375,1044.7880859375],"type":"VEC3"},{"bufferView":6,"byteOffset":0,"componentType":5126,"count":875,"type":"VEC3"},{"bufferView":7,"byteOffset":0,"componentType":5126,"count":875,"type":"VEC2"},{"bufferView":8,"byteOffset":0,"componentType":5125,"count":7368,"type":"SCALAR"},{"bufferView":9,"byteOffset":0,"componentType":5126,"count":1887,"max":[30459.53125,25772.810546875,12356.3125],"min":[-30412.28125,-23595.4765625,-3911.21923828125],"type":"VEC3"},{"bufferView":10,"byteOffset":0,"componentType":5126,"count":1887,"type":"VEC3"},{"bufferView":11,"byteOffset":0,"componentType":5126,"count":1887,"type":"VEC2"},{"bufferView":12,"byteOffset":0,"componentType":5125,"count":1728,"type":"SCALAR"},{"bufferView":13,"byteOffset":0,"componentType":5126,"count":407,"max":[3153.5703125,-3472.4443359375,13995.70703125],"min":[-3106.328125,-10218.0888671875,8931.1318359375],"type":"VEC3"},{"bufferView":14,"byteOffset":0,"componentType":5126,"count":407,"type":"VEC3"},{"bufferView":15,"byteOffset":0,"componentType":5126,"count":407,"type":"VEC2"},{"bufferView":16,"byteOffset":0,"componentType":5125,"count":1440,"type":"SCALAR"},{"bufferView":17,"byteOffset":0,"componentType":5126,"count":342,"max":[14506.1875,25058.2265625,1991.773193359375],"min":[-14458.9609375,-20871.8046875,-4687.5771484375],"type":"VEC3"},{"bufferView":18,"byteOffset":0,"componentType":5126,"count":342,"type":"VEC3"},{"bufferView":19,"byteOffset":0,"componentType":5126,"count":342,"type":"VEC2"},{"bufferView":20,"byteOffset":0,"componentType":5125,"count":7620,"type":"SCALAR"},{"bufferView":21,"byteOffset":0,"componentType":5126,"count":2094,"max":[13347.40625,-7827.7685546875,14192.0048828125],"min":[-13300.171875,-21076.5234375,-1515.7353515625],"type":"VEC3"},{"bufferView":22,"byteOffset":0,"componentType":5126,"count":2094,"type":"VEC3"},{"bufferView":23,"byteOffset":0,"componentType":5126,"count":2094,"type":"VEC2"},{"bufferView":24,"byteOffset":0,"componentType":5125,"count":1638,"type":"SCALAR"},{"bufferView":25,"byteOffset":0,"componentType":5126,"count":549,"max":[1335.375,24576.466796875,10416.5458984375],"min":[-1288.1328125,18148.203125,-2990.2197265625],"type":"VEC3"},{"bufferView":26,"byteOffset":0,"componentType":5126,"count":549,"type":"VEC3"},{"bufferView":27,"byteOffset":0,"componentType":5126,"count":549,"type":"VEC2"},{"bufferView":28,"byteOffset":0,"componentType":5125,"count":168,"type":"SCALAR"},{"bufferView":29,"byteOffset":0,"componentType":5126,"count":55,"max":[23.625,22485.8125,10694.4970703125],"min":[-2748.8046875,-14634.1396484375,-1640.4765625],"type":"VEC3"},{"bufferView":30,"byteOffset":0,"componentType":5126,"count":55,"type":"VEC3"},{"bufferView":31,"byteOffset":0,"componentType":5126,"count":55,"type":"VEC2"},{"bufferView":32,"byteOffset":0,"componentType":5125,"count":189,"type":"SCALAR"},{"bufferView":33,"byteOffset":0,"componentType":5126,"count":63,"max":[2796.0546875,22485.8125,10694.4990234375],"min":[-2505.03125,-14634.1416015625,-1640.4765625],"type":"VEC3"},{"bufferView":34,"byteOffset":0,"componentType":5126,"count":63,"type":"VEC3"},{"bufferView":35,"byteOffset":0,"componentType":5126,"count":63,"type":"VEC2"},{"bufferView":36,"byteOffset":0,"componentType":5125,"count":2397,"type":"SCALAR"},{"bufferView":37,"byteOffset":0,"componentType":5126,"count":691,"max":[3856.109375,22485.841796875,13729.328125],"min":[-3808.875,-22243.0703125,2471.828125],"type":"VEC3"},{"bufferView":38,"byteOffset":0,"componentType":5126,"count":691,"type":"VEC3"},{"bufferView":39,"byteOffset":0,"componentType":5126,"count":691,"type":"VEC2"},{"bufferView":40,"byteOffset":0,"componentType":5125,"count":1476,"type":"SCALAR"},{"bufferView":41,"byteOffset":0,"componentType":5126,"count":1099,"max":[8753.765625,-20758.89453125,17204.642578125],"min":[-8704.6796875,-23925.47265625,5095.98681640625],"type":"VEC3"},{"bufferView":42,"byteOffset":0,"componentType":5126,"count":1099,"type":"VEC3"},{"bufferView":43,"byteOffset":0,"componentType":5126,"count":1099,"type":"VEC2"},{"bufferView":44,"byteOffset":0,"componentType":5125,"count":1728,"type":"SCALAR"},{"bufferView":45,"byteOffset":0,"componentType":5126,"count":477,"max":[152.6796875,27538.162109375,10365.982421875],"min":[-93.703125,21882.232421875,-2746.2802734375],"type":"VEC3"},{"bufferView":46,"byteOffset":0,"componentType":5126,"count":477,"type":"VEC3"},{"bufferView":47,"byteOffset":0,"componentType":5126,"count":477,"type":"VEC2"},{"bufferView":48,"byteOffset":0,"componentType":5125,"count":822,"type":"SCALAR"},{"bufferView":49,"byteOffset":0,"componentType":5126,"count":245,"max":[140.953125,27527.490234375,10365.982421875],"min":[-105.4375,21895.044921875,-2729.310302734375],"type":"VEC3"},{"bufferView":50,"byteOffset":0,"componentType":5126,"count":245,"type":"VEC3"},{"bufferView":51,"byteOffset":0,"componentType":5126,"count":245,"type":"VEC2"}],"bufferViews":[{"buffer":0,"byteOffset":0,"byteLength":13524,"target":34963},{"buffer":0,"byteOffset":13524,"byteLength":9324,"target":34962},{"buffer":0,"byteOffset":22848,"byteLength":9324,"target":34962},{"buffer":0,"byteOffset":32172,"byteLength":6216,"target":34962},{"buffer":0,"byteOffset":38388,"byteLength":13812,"target":34963},{"buffer":0,"byteOffset":52200,"byteLength":10500,"target":34962},{"buffer":0,"byteOffset":62700,"byteLength":10500,"target":34962},{"buffer":0,"byteOffset":73200,"byteLength":7000,"target":34962},{"buffer":0,"byteOffset":80200,"byteLength":29472,"target":34963},{"buffer":0,"byteOffset":109672,"byteLength":22644,"target":34962},{"buffer":0,"byteOffset":132316,"byteLength":22644,"target":34962},{"buffer":0,"byteOffset":154960,"byteLength":15096,"target":34962},{"buffer":0,"byteOffset":170056,"byteLength":6912,"target":34963},{"buffer":0,"byteOffset":176968,"byteLength":4884,"target":34962},{"buffer":0,"byteOffset":181852,"byteLength":4884,"target":34962},{"buffer":0,"byteOffset":186736,"byteLength":3256,"target":34962},{"buffer":0,"byteOffset":189992,"byteLength":5760,"target":34963},{"buffer":0,"byteOffset":195752,"byteLength":4104,"target":34962},{"buffer":0,"byteOffset":199856,"byteLength":4104,"target":34962},{"buffer":0,"byteOffset":203960,"byteLength":2736,"target":34962},{"buffer":0,"byteOffset":206696,"byteLength":30480,"target":34963},{"buffer":0,"byteOffset":237176,"byteLength":25128,"target":34962},{"buffer":0,"byteOffset":262304,"byteLength":25128,"target":34962},{"buffer":0,"byteOffset":287432,"byteLength":16752,"target":34962},{"buffer":0,"byteOffset":304184,"byteLength":6552,"target":34963},{"buffer":0,"byteOffset":310736,"byteLength":6588,"target":34962},{"buffer":0,"byteOffset":317324,"byteLength":6588,"target":34962},{"buffer":0,"byteOffset":323912,"byteLength":4392,"target":34962},{"buffer":0,"byteOffset":328304,"byteLength":672,"target":34963},{"buffer":0,"byteOffset":328976,"byteLength":660,"target":34962},{"buffer":0,"byteOffset":329636,"byteLength":660,"target":34962},{"buffer":0,"byteOffset":330296,"byteLength":440,"target":34962},{"buffer":0,"byteOffset":330736,"byteLength":756,"target":34963},{"buffer":0,"byteOffset":331492,"byteLength":756,"target":34962},{"buffer":0,"byteOffset":332248,"byteLength":756,"target":34962},{"buffer":0,"byteOffset":333004,"byteLength":504,"target":34962},{"buffer":0,"byteOffset":333508,"byteLength":9588,"target":34963},{"buffer":0,"byteOffset":343096,"byteLength":8292,"target":34962},{"buffer":0,"byteOffset":351388,"byteLength":8292,"target":34962},{"buffer":0,"byteOffset":359680,"byteLength":5528,"target":34962},{"buffer":0,"byteOffset":365208,"byteLength":5904,"target":34963},{"buffer":0,"byteOffset":371112,"byteLength":13188,"target":34962},{"buffer":0,"byteOffset":384300,"byteLength":13188,"target":34962},{"buffer":0,"byteOffset":397488,"byteLength":8792,"target":34962},{"buffer":0,"byteOffset":406280,"byteLength":6912,"target":34963},{"buffer":0,"byteOffset":413192,"byteLength":5724,"target":34962},{"buffer":0,"byteOffset":418916,"byteLength":5724,"target":34962},{"buffer":0,"byteOffset":424640,"byteLength":3816,"target":34962},{"buffer":0,"byteOffset":428456,"byteLength":3288,"target":34963},{"buffer":0,"byteOffset":431744,"byteLength":2940,"target":34962},{"buffer":0,"byteOffset":434684,"byteLength":2940,"target":34962},{"buffer":0,"byteOffset":437624,"byteLength":1960,"target":34962}],"textures":[{"sampler":0,"source":0}],"images":[{"uri":"ASHWOOD.jpg","mimeType":"image/jpeg"}],"samplers":[{"wrapS":10497,"wrapT":10497}],"scene":0,"scenes":[{"nodes":[0],"name":"airplane"}],"extensionsUsed":["KHR_texture_transform"],"buffers":[{"byteLength":439584,"uri":"airplane.bin"}]}